<svg width="38" height="38" viewBox="0 0 38 38" fill="none" xmlns="http://www.w3.org/2000/svg">
<path d="M13.1666 30.6666H12.3333C5.66659 30.6666 2.33325 29 2.33325 20.6666V12.3333C2.33325 5.66665 5.66659 2.33331 12.3333 2.33331H25.6666C32.3333 2.33331 35.6666 5.66665 35.6666 12.3333V20.6666C35.6666 27.3333 32.3333 30.6666 25.6666 30.6666H24.8333C24.3166 30.6666 23.8166 30.9166 23.4999 31.3333L20.9999 34.6666C19.8999 36.1333 18.0999 36.1333 16.9999 34.6666L14.4999 31.3333C14.2333 30.9666 13.6166 30.6666 13.1666 30.6666Z" stroke="#1ABDF2" stroke-width="3" stroke-miterlimit="10" stroke-linecap="round" stroke-linejoin="round"/>
<path d="M25.6606 17.3333H25.6756" stroke="#1ABDF2" stroke-width="3" stroke-linecap="round" stroke-linejoin="round"/>
<path d="M18.9924 17.3333H19.0074" stroke="#1ABDF2" stroke-width="3" stroke-linecap="round" stroke-linejoin="round"/>
<path d="M12.3242 17.3333H12.3391" stroke="#1ABDF2" stroke-width="3" stroke-linecap="round" stroke-linejoin="round"/>
</svg>
