<svg width="40" height="40" viewBox="0 0 40 40" fill="none" xmlns="http://www.w3.org/2000/svg">
<path d="M5.01672 18.7V26.1833C5.01672 33.6666 8.01672 36.6666 15.5001 36.6666H24.4834C31.9667 36.6666 34.9667 33.6666 34.9667 26.1833V18.7" stroke="#1ABDF2" stroke-width="1.5" stroke-linecap="round" stroke-linejoin="round"/>
<path d="M20 20.0001C23.05 20.0001 25.3 17.5167 25 14.4667L23.9 3.33337H16.1166L15 14.4667C14.7 17.5167 16.95 20.0001 20 20.0001Z" stroke="#1ABDF2" stroke-width="1.5" stroke-linecap="round" stroke-linejoin="round"/>
<path d="M30.5167 20.0001C33.8834 20.0001 36.35 17.2667 36.0167 13.9167L35.55 9.33339C34.95 5.00004 33.2834 3.33337 28.9167 3.33337H23.8334L25 15.0167C25.2834 17.7667 27.7667 20.0001 30.5167 20.0001Z" stroke="#1ABDF2" stroke-width="1.5" stroke-linecap="round" stroke-linejoin="round"/>
<path d="M9.40005 20.0001C12.15 20.0001 14.6334 17.7667 14.9 15.0167L15.2667 11.3334L16.0667 3.33337H10.9834C6.61672 3.33337 4.95005 5.00004 4.35005 9.33339L3.90005 13.9167C3.56671 17.2667 6.03338 20.0001 9.40005 20.0001Z" stroke="#1ABDF2" stroke-width="1.5" stroke-linecap="round" stroke-linejoin="round"/>
<path d="M20 28.3334C17.2167 28.3334 15.8334 29.7167 15.8334 32.5V36.6667H24.1667V32.5C24.1667 29.7167 22.7834 28.3334 20 28.3334Z" stroke="#1ABDF2" stroke-width="1.5" stroke-linecap="round" stroke-linejoin="round"/>
</svg>
