<svg width="22" height="20" viewBox="0 0 22 20" fill="none" xmlns="http://www.w3.org/2000/svg">
<path d="M1.83337 1.66669H3.42838C4.41838 1.66669 5.19754 2.44169 5.11504 3.33335L4.35421 11.6333C4.22587 12.9917 5.40837 14.1583 6.9117 14.1583H16.6742C17.9942 14.1583 19.1492 13.175 19.25 11.9834L19.745 5.73336C19.855 4.35002 18.7 3.22502 17.1692 3.22502H5.33505" stroke="white" stroke-width="1.5" stroke-miterlimit="10" stroke-linecap="round" stroke-linejoin="round"/>
<path d="M14.8958 18.3333C15.5287 18.3333 16.0417 17.867 16.0417 17.2917C16.0417 16.7164 15.5287 16.25 14.8958 16.25C14.263 16.25 13.75 16.7164 13.75 17.2917C13.75 17.867 14.263 18.3333 14.8958 18.3333Z" stroke="white" stroke-width="1.5" stroke-miterlimit="10" stroke-linecap="round" stroke-linejoin="round"/>
<path d="M7.56246 18.3333C8.19529 18.3333 8.70829 17.867 8.70829 17.2917C8.70829 16.7164 8.19529 16.25 7.56246 16.25C6.92963 16.25 6.41663 16.7164 6.41663 17.2917C6.41663 17.867 6.92963 18.3333 7.56246 18.3333Z" stroke="white" stroke-width="1.5" stroke-miterlimit="10" stroke-linecap="round" stroke-linejoin="round"/>
<path d="M8.25 6.66669H19.25" stroke="white" stroke-width="1.5" stroke-miterlimit="10" stroke-linecap="round" stroke-linejoin="round"/>
</svg>
