<svg width="190" height="67" viewBox="0 0 190 67" fill="none" xmlns="http://www.w3.org/2000/svg">
<path d="M27.112 46.8L28.9603 46.036L28.4494 44.8H27.112V46.8ZM11.512 46.8V44.8H10.1746L9.66367 46.036L11.512 46.8ZM8.536 54V56H9.87344L10.3843 54.764L8.536 54ZM0.568 54L-1.25876 53.1858L-2.5131 56H0.568V54ZM15.544 20.4V18.4H14.2458L13.7172 19.5858L15.544 20.4ZM23.224 20.4L25.0498 19.5836L24.5205 18.4H23.224V20.4ZM38.248 54V56H41.3331L40.0738 53.1836L38.248 54ZM30.088 54L28.2397 54.764L28.7506 56H30.088V54ZM24.664 40.896V42.896H27.6571L26.5118 40.1307L24.664 40.896ZM19.336 28.032L21.1838 27.2667L19.336 22.8054L17.4882 27.2667L19.336 28.032ZM14.008 40.896L12.1602 40.1307L11.0149 42.896H14.008V40.896ZM27.112 44.8H11.512V48.8H27.112V44.8ZM9.66367 46.036L6.68767 53.236L10.3843 54.764L13.3603 47.564L9.66367 46.036ZM8.536 52H0.568V56H8.536V52ZM2.39476 54.8142L17.3708 21.2142L13.7172 19.5858L-1.25876 53.1858L2.39476 54.8142ZM15.544 22.4H23.224V18.4H15.544V22.4ZM21.3982 21.2164L36.4222 54.8164L40.0738 53.1836L25.0498 19.5836L21.3982 21.2164ZM38.248 52H30.088V56H38.248V52ZM31.9363 53.236L28.9603 46.036L25.2637 47.564L28.2397 54.764L31.9363 53.236ZM26.5118 40.1307L21.1838 27.2667L17.4882 28.7973L22.8162 41.6613L26.5118 40.1307ZM17.4882 27.2667L12.1602 40.1307L15.8558 41.6613L21.1838 28.7973L17.4882 27.2667ZM14.008 42.896H24.664V38.896H14.008V42.896ZM63.67 30.672L62.2675 32.0979L62.2733 32.1035L62.2792 32.1092L63.67 30.672ZM66.646 54V56H68.646V54H66.646ZM59.158 54H57.158V56H59.158V54ZM57.814 35.808L56.3088 37.125L56.3192 37.1369L56.3298 37.1486L57.814 35.808ZM49.414 36.048L50.848 37.4422L50.8575 37.4323L50.8669 37.4224L49.414 36.048ZM47.734 54V56H49.734V54H47.734ZM40.246 54H38.246V56H40.246V54ZM40.246 28.176V26.176H38.246V28.176H40.246ZM47.398 28.176H49.398V26.176H47.398V28.176ZM47.398 31.2H45.398V36.362L48.8759 32.5475L47.398 31.2ZM51.094 28.704L51.8228 30.5665L51.8402 30.5597L51.8575 30.5525L51.094 28.704ZM55.942 29.792C58.7126 29.792 60.7525 30.6076 62.2675 32.0979L65.0725 29.2461C62.6835 26.8964 59.5714 25.792 55.942 25.792V29.792ZM62.2792 32.1092C63.7477 33.5304 64.646 35.7768 64.646 39.216H68.646C68.646 35.1032 67.5603 31.6536 65.0608 29.2348L62.2792 32.1092ZM64.646 39.216V54H68.646V39.216H64.646ZM66.646 52H59.158V56H66.646V52ZM61.158 54V40.368H57.158V54H61.158ZM61.158 40.368C61.158 38.0791 60.6644 35.9799 59.2982 34.4674L56.3298 37.1486C56.7556 37.62 57.158 38.5609 57.158 40.368H61.158ZM59.3192 34.491C57.9528 32.9294 56.0451 32.272 53.926 32.272V36.272C55.1989 36.272 55.8832 36.6386 56.3088 37.125L59.3192 34.491ZM53.926 32.272C51.5834 32.272 49.5195 33.0261 47.9611 34.6736L50.8669 37.4224C51.5485 36.7019 52.4926 36.272 53.926 36.272V32.272ZM47.98 34.6538C46.3651 36.3149 45.734 38.6336 45.734 41.232H49.734C49.734 39.2224 50.2229 38.0851 50.848 37.4422L47.98 34.6538ZM45.734 41.232V54H49.734V41.232H45.734ZM47.734 52H40.246V56H47.734V52ZM42.246 54V28.176H38.246V54H42.246ZM40.246 30.176H47.398V26.176H40.246V30.176ZM45.398 28.176V31.2H49.398V28.176H45.398ZM48.8759 32.5475C49.646 31.7029 50.6152 31.039 51.8228 30.5665L50.3652 26.8415C48.6288 27.521 47.134 28.5211 45.9201 29.8525L48.8759 32.5475ZM51.8575 30.5525C53.0631 30.0546 54.4164 29.792 55.942 29.792V25.792C53.9476 25.792 52.0689 26.1374 50.3305 26.8555L51.8575 30.5525ZM72.4735 28.176V26.176H70.4735V28.176H72.4735ZM79.9615 28.176H81.9615V26.176H79.9615V28.176ZM79.9615 54V56H81.9615V54H79.9615ZM72.4735 54H70.4735V56H72.4735V54ZM72.8575 23.376L71.4987 24.8435V24.8435L72.8575 23.376ZM72.8575 17.424L74.2163 18.8915V18.8915L72.8575 17.424ZM79.5775 17.376L78.2488 18.8708V18.8708L79.5775 17.376ZM79.5775 23.376L80.9363 24.8435L80.9507 24.8302L80.9648 24.8166L79.5775 23.376ZM72.4735 30.176H79.9615V26.176H72.4735V30.176ZM77.9615 28.176V54H81.9615V28.176H77.9615ZM79.9615 52H72.4735V56H79.9615V52ZM74.4735 54V28.176H70.4735V54H74.4735ZM76.2175 22.576C75.2547 22.576 74.6491 22.3092 74.2163 21.9085L71.4987 24.8435C72.7939 26.0428 74.4283 26.576 76.2175 26.576V22.576ZM74.2163 21.9085C73.7637 21.4894 73.5615 21.0304 73.5615 20.4H69.5615C69.5615 22.1376 70.2233 23.6626 71.4987 24.8435L74.2163 21.9085ZM73.5615 20.4C73.5615 19.7696 73.7637 19.3106 74.2163 18.8915L71.4987 15.9565C70.2233 17.1374 69.5615 18.6624 69.5615 20.4H73.5615ZM74.2163 18.8915C74.6491 18.4908 75.2547 18.224 76.2175 18.224V14.224C74.4283 14.224 72.7939 14.7572 71.4987 15.9565L74.2163 18.8915ZM76.2175 18.224C77.202 18.224 77.8182 18.4881 78.2488 18.8708L80.9062 15.8812C79.6088 14.7279 77.985 14.224 76.2175 14.224V18.224ZM78.2488 18.8708C78.6875 19.2608 78.8735 19.6775 78.8735 20.256H82.8735C82.8735 18.5305 82.1955 17.0272 80.9062 15.8812L78.2488 18.8708ZM78.8735 20.256C78.8735 20.9852 78.6453 21.4972 78.1902 21.9354L80.9648 24.8166C82.2377 23.5908 82.8735 22.0228 82.8735 20.256H78.8735ZM78.2187 21.9085C77.7859 22.3092 77.1803 22.576 76.2175 22.576V26.576C78.0067 26.576 79.6411 26.0428 80.9363 24.8435L78.2187 21.9085ZM126.703 30.672L125.277 32.0743L125.289 32.0863L125.301 32.098L126.703 30.672ZM129.583 54V56H131.583V54H129.583ZM122.095 54H120.095V56H122.095V54ZM120.799 35.808L119.247 37.0692L119.268 37.0958L119.291 37.1216L120.799 35.808ZM113.023 36L114.499 37.3495L114.509 37.3392L114.518 37.3287L113.023 36ZM111.487 54V56H113.487V54H111.487ZM103.999 54H101.999V56H103.999V54ZM94.975 36L96.4511 37.3495L96.4605 37.3392L96.4698 37.3287L94.975 36ZM93.439 54V56H95.439V54H93.439ZM85.951 54H83.951V56H85.951V54ZM85.951 28.176V26.176H83.951V28.176H85.951ZM93.103 28.176H95.103V26.176H93.103V28.176ZM93.103 31.152H91.103V36.4415L94.6027 32.4752L93.103 31.152ZM96.607 28.656L95.8497 26.8049L95.8422 26.808L95.8347 26.8111L96.607 28.656ZM106.159 28.896L105.265 30.6849L105.28 30.6927L105.296 30.7003L106.159 28.896ZM109.711 32.016L108.035 33.1073L109.559 35.4471L111.284 33.2516L109.711 32.016ZM113.695 28.896L112.873 27.0728L112.866 27.0759L112.859 27.079L113.695 28.896ZM119.023 29.792C121.834 29.792 123.839 30.6117 125.277 32.0743L128.129 29.2697C125.791 26.8923 122.676 25.792 119.023 25.792V29.792ZM125.301 32.098C126.703 33.4771 127.583 35.7191 127.583 39.216H131.583C131.583 35.0969 130.543 31.6429 128.105 29.246L125.301 32.098ZM127.583 39.216V54H131.583V39.216H127.583ZM129.583 52H122.095V56H129.583V52ZM124.095 54V40.368H120.095V54H124.095ZM124.095 40.368C124.095 38.0937 123.624 36.0061 122.307 34.4944L119.291 37.1216C119.702 37.5939 120.095 38.5463 120.095 40.368H124.095ZM122.351 34.5468C121.066 32.9656 119.243 32.272 117.199 32.272V36.272C118.291 36.272 118.868 36.6024 119.247 37.0692L122.351 34.5468ZM117.199 32.272C114.958 32.272 112.988 33.0295 111.528 34.6713L114.518 37.3287C115.106 36.6665 115.92 36.272 117.199 36.272V32.272ZM111.547 34.6505C110.056 36.2812 109.487 38.5339 109.487 41.04H113.487C113.487 39.0661 113.942 37.9588 114.499 37.3495L111.547 34.6505ZM109.487 41.04V54H113.487V41.04H109.487ZM111.487 52H103.999V56H111.487V52ZM105.999 54V40.368H101.999V54H105.999ZM105.999 40.368C105.999 38.1209 105.556 36.0653 104.334 34.5436C103.045 32.9382 101.174 32.272 99.103 32.272V36.272C100.296 36.272 100.873 36.6218 101.216 37.0484C101.626 37.5587 101.999 38.5511 101.999 40.368H105.999ZM99.103 32.272C96.8808 32.272 94.9321 33.0379 93.4802 34.6713L96.4698 37.3287C97.0659 36.6581 97.8692 36.272 99.103 36.272V32.272ZM93.4989 34.6505C92.008 36.2812 91.439 38.5339 91.439 41.04H95.439C95.439 39.0661 95.894 37.9588 96.4511 37.3495L93.4989 34.6505ZM91.439 41.04V54H95.439V41.04H91.439ZM93.439 52H85.951V56H93.439V52ZM87.951 54V28.176H83.951V54H87.951ZM85.951 30.176H93.103V26.176H85.951V30.176ZM91.103 28.176V31.152H95.103V28.176H91.103ZM94.6027 32.4752C95.357 31.6203 96.274 30.9636 97.3793 30.5009L95.8347 26.8111C94.188 27.5004 92.769 28.5077 91.6033 29.8288L94.6027 32.4752ZM97.3643 30.5071C98.5102 30.0383 99.7862 29.792 101.215 29.792V25.792C99.3158 25.792 97.5198 26.1217 95.8497 26.8049L97.3643 30.5071ZM101.215 29.792C102.763 29.792 104.099 30.1022 105.265 30.6849L107.053 27.1071C105.275 26.2178 103.315 25.792 101.215 25.792V29.792ZM105.296 30.7003C106.435 31.2447 107.338 32.0371 108.035 33.1073L111.387 30.9247C110.292 29.2429 108.827 27.9553 107.022 27.0917L105.296 30.7003ZM111.284 33.2516C112.138 32.1649 113.21 31.3206 114.531 30.713L112.859 27.079C110.98 27.9434 109.396 29.1791 108.138 30.7804L111.284 33.2516ZM114.517 30.7192C115.872 30.108 117.366 29.792 119.023 29.792V25.792C116.84 25.792 114.782 26.212 112.873 27.0728L114.517 30.7192ZM160.768 43.2V45.2H162.62L162.762 43.3534L160.768 43.2ZM141.232 43.2V41.2H138.744L139.279 43.6297L141.232 43.2ZM143.728 46.992L144.883 45.3592L143.728 46.992ZM152.176 47.808L152.878 49.6807L152.894 49.6749L152.909 49.6688L152.176 47.808ZM155.104 45.888L156.574 44.5321L155.188 43.0288L153.716 44.4483L155.104 45.888ZM159.088 50.208L160.594 51.5238L161.775 50.1718L160.558 48.8521L159.088 50.208ZM140.704 52.704L139.789 54.4826L139.799 54.4878L139.81 54.4929L140.704 52.704ZM135.52 47.952L133.807 48.985L135.52 47.952ZM135.472 34.272L133.752 33.2509L133.747 33.2592L135.472 34.272ZM140.416 29.52L141.364 31.281L141.374 31.2758L140.416 29.52ZM154.336 29.424L155.274 27.6578L154.336 29.424ZM159.136 34.128L157.393 35.1085L157.402 35.1248L157.411 35.1408L159.136 34.128ZM143.248 34.896L141.968 33.3596L143.248 34.896ZM141.136 38.832L139.159 38.5279L138.805 40.832H141.136V38.832ZM153.856 38.832V40.832H156.194L155.832 38.5221L153.856 38.832ZM151.744 34.944L150.439 36.4595L150.451 36.4701L150.464 36.4804L151.744 34.944ZM158.912 41.184C158.912 41.1314 158.914 41.1199 158.907 41.2392C158.901 41.3265 158.893 41.4517 158.881 41.6175C158.857 41.948 158.822 42.4237 158.774 43.0466L162.762 43.3534C162.852 42.1795 162.912 41.3814 162.912 41.184H158.912ZM160.768 41.2H141.232V45.2H160.768V41.2ZM139.279 43.6297C139.735 45.7057 140.846 47.4031 142.573 48.6248L144.883 45.3592C143.986 44.7249 143.433 43.8943 143.185 42.7703L139.279 43.6297ZM142.573 48.6248C144.29 49.8391 146.349 50.384 148.624 50.384V46.384C146.995 46.384 145.79 46.0009 144.883 45.3592L142.573 48.6248ZM148.624 50.384C150.155 50.384 151.585 50.1657 152.878 49.6807L151.474 45.9353C150.719 46.2183 149.781 46.384 148.624 46.384V50.384ZM152.909 49.6688C154.232 49.1478 155.426 48.356 156.492 47.3277L153.716 44.4483C152.99 45.148 152.232 45.6362 151.443 45.9472L152.909 49.6688ZM153.634 47.2439L157.618 51.5639L160.558 48.8521L156.574 44.5321L153.634 47.2439ZM157.582 48.8922C155.626 51.1316 152.691 52.384 148.432 52.384V56.384C153.517 56.384 157.686 54.8524 160.594 51.5238L157.582 48.8922ZM148.432 52.384C145.78 52.384 143.519 51.8753 141.598 50.9151L139.81 54.4929C142.369 55.7727 145.26 56.384 148.432 56.384V52.384ZM141.619 50.9254C139.685 49.9308 138.243 48.5949 137.233 46.919L133.807 48.985C135.229 51.3411 137.243 53.1732 139.789 54.4826L141.619 50.9254ZM137.233 46.919C136.221 45.2418 135.696 43.3168 135.696 41.088H131.696C131.696 43.9792 132.387 46.6302 133.807 48.985L137.233 46.919ZM135.696 41.088C135.696 38.8862 136.207 36.969 137.197 35.2848L133.747 33.2592C132.369 35.607 131.696 38.2338 131.696 41.088H135.696ZM137.192 35.2931C138.224 33.5544 139.606 32.2274 141.364 31.2809L139.468 27.7591C137.066 29.0526 135.152 30.8936 133.752 33.2509L137.192 35.2931ZM141.374 31.2758C143.169 30.2963 145.188 29.792 147.472 29.792V25.792C144.572 25.792 141.887 26.4397 139.458 27.7642L141.374 31.2758ZM147.472 29.792C149.703 29.792 151.664 30.2693 153.398 31.1902L155.274 27.6578C152.912 26.4027 150.297 25.792 147.472 25.792V29.792ZM153.398 31.1902C155.103 32.0962 156.426 33.3893 157.393 35.1085L160.879 33.1475C159.542 30.7707 157.665 28.9278 155.274 27.6578L153.398 31.1902ZM157.411 35.1408C158.39 36.8062 158.912 38.798 158.912 41.184H162.912C162.912 38.194 162.251 35.4818 160.861 33.1152L157.411 35.1408ZM147.52 31.456C145.421 31.456 143.526 32.0609 141.968 33.3596L144.528 36.4324C145.274 35.8111 146.227 35.456 147.52 35.456V31.456ZM141.968 33.3596C140.395 34.6705 139.48 36.4454 139.159 38.5279L143.113 39.1361C143.304 37.8906 143.797 37.0415 144.528 36.4324L141.968 33.3596ZM141.136 40.832H153.856V36.832H141.136V40.832ZM155.832 38.5221C155.509 36.4629 154.588 34.7108 153.024 33.4076L150.464 36.4804C151.204 37.0972 151.691 37.9371 151.88 39.1419L155.832 38.5221ZM153.049 33.4285C151.499 32.0935 149.614 31.456 147.52 31.456V35.456C148.754 35.456 149.685 35.8105 150.439 36.4595L153.049 33.4285Z" fill="url(#paint0_linear_133_246)"/>
<g filter="url(#filter0_d_133_246)">
<rect x="179.142" y="1.75358" width="4.06783" height="56.615" transform="rotate(16.8062 179.142 1.75358)" stroke="url(#paint1_linear_133_246)" stroke-width="2" shape-rendering="crispEdges"/>
</g>
<g filter="url(#filter1_d_133_246)">
<path d="M162.424 3.31771L161.482 3.65265L161.817 4.59489L180.109 56.0554L180.444 56.9976L181.387 56.6627L183.335 55.9701L184.277 55.6352L183.942 54.6929L165.65 3.23242L165.315 2.29018L164.372 2.62512L162.424 3.31771Z" stroke="url(#paint2_linear_133_246)" stroke-width="2" shape-rendering="crispEdges"/>
</g>
<rect x="143.72" y="10.5299" width="22.0455" height="15.8317" transform="rotate(-19.8484 143.72 10.5299)" stroke="url(#paint3_linear_133_246)" stroke-width="2"/>
<g filter="url(#filter2_d_133_246)">
<circle cx="156.799" cy="14.2714" r="4.04093" stroke="url(#paint4_linear_133_246)" stroke-width="2" shape-rendering="crispEdges"/>
</g>
<defs>
<filter id="filter0_d_133_246" x="157.526" y="0.507141" width="30.7565" height="65.8659" filterUnits="userSpaceOnUse" color-interpolation-filters="sRGB">
<feFlood flood-opacity="0" result="BackgroundImageFix"/>
<feColorMatrix in="SourceAlpha" type="matrix" values="0 0 0 0 0 0 0 0 0 0 0 0 0 0 0 0 0 0 127 0" result="hardAlpha"/>
<feOffset dy="4"/>
<feGaussianBlur stdDeviation="2"/>
<feComposite in2="hardAlpha" operator="out"/>
<feColorMatrix type="matrix" values="0 0 0 0 0 0 0 0 0 0 0 0 0 0 0 0 0 0 0.25 0"/>
<feBlend mode="normal" in2="BackgroundImageFix" result="effect1_dropShadow_133_246"/>
<feBlend mode="normal" in="SourceGraphic" in2="effect1_dropShadow_133_246" result="shape"/>
</filter>
<filter id="filter1_d_133_246" x="156.205" y="1.013" width="33.3496" height="65.2618" filterUnits="userSpaceOnUse" color-interpolation-filters="sRGB">
<feFlood flood-opacity="0" result="BackgroundImageFix"/>
<feColorMatrix in="SourceAlpha" type="matrix" values="0 0 0 0 0 0 0 0 0 0 0 0 0 0 0 0 0 0 127 0" result="hardAlpha"/>
<feOffset dy="4"/>
<feGaussianBlur stdDeviation="2"/>
<feComposite in2="hardAlpha" operator="out"/>
<feColorMatrix type="matrix" values="0 0 0 0 0 0 0 0 0 0 0 0 0 0 0 0 0 0 0.25 0"/>
<feBlend mode="normal" in2="BackgroundImageFix" result="effect1_dropShadow_133_246"/>
<feBlend mode="normal" in="SourceGraphic" in2="effect1_dropShadow_133_246" result="shape"/>
</filter>
<filter id="filter2_d_133_246" x="147.758" y="9.23047" width="18.0819" height="18.0818" filterUnits="userSpaceOnUse" color-interpolation-filters="sRGB">
<feFlood flood-opacity="0" result="BackgroundImageFix"/>
<feColorMatrix in="SourceAlpha" type="matrix" values="0 0 0 0 0 0 0 0 0 0 0 0 0 0 0 0 0 0 127 0" result="hardAlpha"/>
<feOffset dy="4"/>
<feGaussianBlur stdDeviation="2"/>
<feComposite in2="hardAlpha" operator="out"/>
<feColorMatrix type="matrix" values="0 0 0 0 0 0 0 0 0 0 0 0 0 0 0 0 0 0 0.25 0"/>
<feBlend mode="normal" in2="BackgroundImageFix" result="effect1_dropShadow_133_246"/>
<feBlend mode="normal" in="SourceGraphic" in2="effect1_dropShadow_133_246" result="shape"/>
</filter>
<linearGradient id="paint0_linear_133_246" x1="6.51489" y1="27.7064" x2="43.9519" y2="80.6182" gradientUnits="userSpaceOnUse">
<stop stop-color="#18C8FF"/>
<stop offset="1" stop-color="#754672"/>
</linearGradient>
<linearGradient id="paint1_linear_133_246" x1="179.881" y1="19.7331" x2="181.313" y2="19.7558" gradientUnits="userSpaceOnUse">
<stop stop-color="#18C8FF"/>
<stop offset="1" stop-color="#754672"/>
</linearGradient>
<linearGradient id="paint2_linear_133_246" x1="168.43" y1="20.003" x2="169.787" y2="19.5447" gradientUnits="userSpaceOnUse">
<stop stop-color="#18C8FF"/>
<stop offset="1" stop-color="#754672"/>
</linearGradient>
<linearGradient id="paint3_linear_133_246" x1="145.682" y1="15.3688" x2="155.83" y2="21.5277" gradientUnits="userSpaceOnUse">
<stop stop-color="#18C8FF"/>
<stop offset="1" stop-color="#754672"/>
</linearGradient>
<linearGradient id="paint4_linear_133_246" x1="153.965" y1="13.0938" x2="157.549" y2="14.5949" gradientUnits="userSpaceOnUse">
<stop stop-color="#18C8FF"/>
<stop offset="1" stop-color="#754672"/>
</linearGradient>
</defs>
</svg>
